<svg
  width="512"
  height="512"
  viewBox="0 0 512 512"
  fill="none"
  xmlns="http://www.w3.org/2000/svg"
>
  <circle cx="256" cy="256" r="256" fill="#ECE3F7" />
  <path
    d="M364.734 181.331C340.482 170.572 307.882 165.392 307.882 165.392C319.809 161.408 339.687 167.385 350.819 170.174C375.07 175.354 400.912 173.362 425.561 156.228C445.837 142.282 445.439 119.569 445.439 119.569C441.066 127.14 408.863 161.408 350.024 148.258C324.182 142.282 299.533 142.282 284.823 142.68C286.413 127.937 285.221 109.608 276.872 90.88C276.872 90.88 251.428 153.04 208.093 161.806C203.322 170.572 193.781 185.714 176.288 198.465C163.168 208.426 150.049 213.606 139.712 216.794C132.158 219.185 128.978 227.951 133.351 234.326C139.712 243.889 150.049 255.046 165.554 259.828C165.554 259.828 159.59 245.882 161.578 239.108C161.578 239.108 169.529 248.671 188.215 247.874C188.215 247.874 177.878 241.498 178.276 231.537C178.276 231.537 188.215 240.303 204.515 239.108C204.515 239.108 193.781 236.318 194.576 223.568C194.576 223.568 214.852 220.778 232.742 227.154C228.767 228.748 224.393 230.74 220.02 233.529C210.876 238.709 204.117 244.288 198.552 249.468C196.961 250.663 194.178 252.655 190.203 253.851C183.444 255.445 177.878 253.054 176.288 252.257C176.288 252.257 179.468 259.031 183.842 261.023C188.215 263.015 178.673 265.805 171.12 264.211C163.566 263.015 155.615 259.429 155.615 259.429C156.012 260.226 159.59 275.766 174.3 280.946C176.686 281.743 178.673 282.142 180.661 282.54C189.408 283.337 197.756 278.555 201.335 270.586C201.335 270.188 201.732 269.789 202.13 269.391C202.13 269.391 206.105 261.82 214.852 255.046C223.996 247.874 242.284 241.897 265.342 241.897C277.269 248.671 285.221 262.218 283.233 275.766C282.04 283.735 278.065 290.509 274.089 296.885C262.162 316.011 233.935 320.792 213.659 326.769C196.564 331.551 179.071 335.934 161.578 338.723C147.266 341.114 133.351 343.106 119.834 349.482C102.738 358.248 88.0285 372.194 78.0894 389.726C74.1137 396.898 70.9332 404.868 68.5478 412.837C68.1503 414.032 67.3551 422.002 66.56 422.4C111.087 394.508 134.544 402.477 207.696 405.266C280.848 408.454 306.292 364.623 306.292 364.623C304.304 382.554 277.269 414.032 277.269 414.032C324.182 404.469 348.831 321.988 348.831 321.988C353.602 350.278 330.941 389.726 330.941 389.726C415.225 304.455 352.012 235.522 352.012 235.522C377.456 244.686 394.949 284.532 394.949 284.532C395.744 270.586 394.551 256.242 388.588 243.491C385.407 236.717 381.431 230.74 375.866 225.56C370.3 219.982 363.541 215.997 356.385 212.411C351.614 210.02 346.843 207.231 342.073 204.043C339.687 202.449 337.302 200.855 335.314 199.262C333.326 197.668 330.146 196.074 328.555 193.683C330.543 193.285 333.326 194.48 334.916 194.878C337.302 195.675 339.29 196.074 341.277 196.871C345.651 198.465 349.626 200.058 353.999 201.254C358.77 202.848 363.541 204.043 368.312 205.238C418.803 217.989 437.091 189.3 437.091 189.3C424.368 198.863 388.985 192.089 364.734 181.331V181.331ZM231.947 178.542L231.152 182.526C230.357 185.315 228.767 188.105 225.984 189.3L215.249 194.48C212.069 196.074 209.683 192.089 212.069 189.698L226.779 175.752C228.767 173.362 232.345 175.354 231.947 178.542V178.542Z"
    fill="url(#paint0_linear)"
  />
  <defs>
    <linearGradient
      id="paint0_linear"
      x1="51.5897"
      y1="91.6172"
      x2="395.248"
      y2="251.507"
      gradientUnits="userSpaceOnUse"
    >
      <stop stop-color="#3616AC" />
      <stop offset="1" stop-color="#E09BED" />
    </linearGradient>
  </defs>
</svg>
