<svg
  width="129"
  height="112"
  viewBox="0 0 129 112"
  fill="none"
  xmlns="http://www.w3.org/2000/svg"
>
  <path
    d="M101.008 30.5577C92.7925 26.9231 81.749 25.1731 81.749 25.1731C85.7893 23.8269 92.5231 25.8462 96.2941 26.7885C104.509 28.5385 113.263 27.8654 121.613 22.0769C128.482 17.3654 128.347 9.69231 128.347 9.69231C126.866 12.25 115.957 23.8269 96.0247 19.3846C87.2707 17.3654 78.9208 17.3654 73.9377 17.5C74.4764 12.5192 74.0724 6.32692 71.2442 0C71.2442 0 62.6248 21 47.945 23.9615C46.3289 26.9231 43.0967 32.0385 37.1709 36.3462C32.7265 39.7115 28.2822 41.4615 24.7806 42.5385C22.2217 43.3462 21.1443 46.3077 22.6257 48.4615C24.7806 51.6923 28.2822 55.4615 33.5346 57.0769C33.5346 57.0769 31.5144 52.3654 32.1878 50.0769C32.1878 50.0769 34.8814 53.3077 41.2112 53.0385C41.2112 53.0385 37.7096 50.8846 37.8443 47.5192C37.8443 47.5192 41.2112 50.4808 46.7329 50.0769C46.7329 50.0769 43.0967 49.1346 43.366 44.8269C43.366 44.8269 50.2345 43.8846 56.295 46.0385C54.9482 46.5769 53.4668 47.25 51.9853 48.1923C48.8878 49.9423 46.5983 51.8269 44.7128 53.5769C44.1741 53.9808 43.2313 54.6538 41.8846 55.0577C39.5951 55.5962 37.7096 54.7885 37.1709 54.5192C37.1709 54.5192 38.2483 56.8077 39.7297 57.4808C41.2112 58.1538 37.9789 59.0962 35.4201 58.5577C32.8612 58.1539 30.1677 56.9423 30.1677 56.9423C30.3023 57.2115 31.5144 62.4615 36.4975 64.2115C37.3055 64.4808 37.9789 64.6154 38.6523 64.75C41.6152 65.0192 44.4434 63.4038 45.6555 60.7115C45.6555 60.5769 45.7902 60.4423 45.9249 60.3077C45.9249 60.3077 47.2716 57.75 50.2345 55.4615C53.3321 53.0385 59.5273 51.0192 67.3385 51.0192C71.3788 53.3077 74.0724 57.8846 73.399 62.4615C72.995 65.1539 71.6482 67.4423 70.3014 69.5962C66.2611 76.0577 56.699 77.6731 49.8305 79.6923C44.0394 81.3077 38.1136 82.7885 32.1878 83.7308C27.3394 84.5385 22.6257 85.2115 18.0467 87.3654C12.2556 90.3269 7.27256 95.0385 3.90563 100.962C2.55886 103.385 1.48145 106.077 0.673385 108.769C0.538708 109.173 0.269354 111.865 0 112C15.0838 102.577 23.0298 105.269 47.8104 106.212C72.5909 107.288 81.2103 92.4808 81.2103 92.4808C80.5369 98.5385 71.3788 109.173 71.3788 109.173C87.2707 105.942 95.6207 78.0769 95.6207 78.0769C97.2368 87.6346 89.5602 100.962 89.5602 100.962C118.112 72.1538 96.6981 48.8654 96.6981 48.8654C105.317 51.9615 111.243 65.4231 111.243 65.4231C111.513 60.7115 111.109 55.8654 109.088 51.5577C108.011 49.2692 106.664 47.25 104.779 45.5C102.893 43.6154 100.604 42.2692 98.1796 41.0577C96.5634 40.25 94.9473 39.3077 93.3312 38.2308C92.5231 37.6923 91.7151 37.1538 91.0417 36.6154C90.3683 36.0769 89.2909 35.5385 88.7522 34.7308C89.4256 34.5962 90.3683 35 90.907 35.1346C91.7151 35.4038 92.3885 35.5385 93.0619 35.8077C94.5433 36.3462 95.8901 36.8846 97.3715 37.2885C98.9876 37.8269 100.604 38.2308 102.22 38.6346C119.324 42.9423 125.519 33.25 125.519 33.25C121.209 36.4808 109.223 34.1923 101.008 30.5577ZM56.0257 29.6154L55.7563 30.9615C55.487 31.9038 54.9482 32.8462 54.0055 33.25L50.3692 35C49.2918 35.5385 48.4837 34.1923 49.2918 33.3846L54.2749 28.6731C54.9482 27.8654 56.1603 28.5385 56.0257 29.6154Z"
    fill="url(#paint0_linear)"
  />
  <defs>
    <linearGradient
      id="paint0_linear"
      x1="-5.07125"
      y1="0.249049"
      x2="111.232"
      y2="54.507"
      gradientUnits="userSpaceOnUse"
    >
      <stop stop-color="#3616AC" />
      <stop offset="1" stop-color="#E09BED" />
    </linearGradient>
  </defs>
</svg>
